<mxfile host="app.diagrams.net" modified="2023-09-27T18:01:39.353Z" agent="Mozilla/5.0 (Windows NT 10.0; Win64; x64) AppleWebKit/537.36 (KHTML, like Gecko) Chrome/116.0.0.0 Safari/537.36" etag="Gm2HJZDaSAEsX2yUr6xq" version="21.8.2" type="device">
  <diagram name="Страница — 1" id="S9d_DnDVHZyArCJByIiJ">
    <mxGraphModel dx="1290" dy="542" grid="1" gridSize="10" guides="1" tooltips="1" connect="1" arrows="1" fold="1" page="1" pageScale="1" pageWidth="827" pageHeight="1169" math="0" shadow="0">
      <root>
        <mxCell id="0" />
        <mxCell id="1" parent="0" />
        <mxCell id="BqxO_oJIJfSJZBJjIX4z-11" value="Сохранение &lt;br&gt;личных данных" style="ellipse;whiteSpace=wrap;html=1;fillColor=#0ac98f;strokeColor=#fff000;" parent="1" vertex="1">
          <mxGeometry x="400" y="160" width="120" height="80" as="geometry" />
        </mxCell>
        <mxCell id="BqxO_oJIJfSJZBJjIX4z-12" value="Обязательное наличие имени пользователя и пароля" style="ellipse;whiteSpace=wrap;html=1;fillColor=#0ac98f;strokeColor=#fff000;" parent="1" vertex="1">
          <mxGeometry x="560" y="240" width="120" height="80" as="geometry" />
        </mxCell>
        <mxCell id="BqxO_oJIJfSJZBJjIX4z-13" value="Создание новой учетной записи" style="ellipse;whiteSpace=wrap;html=1;fillColor=#0ac98f;strokeColor=#fff000;" parent="1" vertex="1">
          <mxGeometry x="240" y="240" width="120" height="80" as="geometry" />
        </mxCell>
        <mxCell id="BqxO_oJIJfSJZBJjIX4z-31" style="edgeStyle=orthogonalEdgeStyle;rounded=0;orthogonalLoop=1;jettySize=auto;html=1;exitX=1;exitY=0.5;exitDx=0;exitDy=0;entryX=0;entryY=0.5;entryDx=0;entryDy=0;dashed=1;" parent="1" source="BqxO_oJIJfSJZBJjIX4z-14" target="BqxO_oJIJfSJZBJjIX4z-16" edge="1">
          <mxGeometry relative="1" as="geometry" />
        </mxCell>
        <mxCell id="BqxO_oJIJfSJZBJjIX4z-14" value="Авторизация" style="ellipse;whiteSpace=wrap;html=1;fillColor=#0ac98f;strokeColor=#fff000;" parent="1" vertex="1">
          <mxGeometry x="240" y="400" width="120" height="80" as="geometry" />
        </mxCell>
        <mxCell id="BqxO_oJIJfSJZBJjIX4z-15" value="Получение доступа к сисетме" style="ellipse;whiteSpace=wrap;html=1;fillColor=#0ac98f;strokeColor=#fff000;" parent="1" vertex="1">
          <mxGeometry x="400" y="480" width="120" height="80" as="geometry" />
        </mxCell>
        <mxCell id="BqxO_oJIJfSJZBJjIX4z-16" value="Проверка правильности ввода&lt;br&gt;данных" style="ellipse;whiteSpace=wrap;html=1;fillColor=#0ac98f;strokeColor=#fff000;" parent="1" vertex="1">
          <mxGeometry x="560" y="400" width="120" height="80" as="geometry" />
        </mxCell>
        <mxCell id="BqxO_oJIJfSJZBJjIX4z-17" value="ЮЗЕР" style="shape=umlActor;verticalLabelPosition=bottom;verticalAlign=top;html=1;outlineConnect=0;" parent="1" vertex="1">
          <mxGeometry x="70" y="315" width="45" height="90" as="geometry" />
        </mxCell>
        <mxCell id="BqxO_oJIJfSJZBJjIX4z-22" value="" style="rounded=0;whiteSpace=wrap;html=1;fillColor=none;" parent="1" vertex="1">
          <mxGeometry x="220" y="150" width="520" height="480" as="geometry" />
        </mxCell>
        <mxCell id="BqxO_oJIJfSJZBJjIX4z-25" value="" style="endArrow=none;html=1;rounded=0;entryX=0;entryY=0.5;entryDx=0;entryDy=0;exitX=0.5;exitY=0.5;exitDx=0;exitDy=0;exitPerimeter=0;" parent="1" edge="1" source="g9y96b5UNol4rBwA7D8Q-1">
          <mxGeometry width="50" height="50" relative="1" as="geometry">
            <mxPoint x="120" y="350" as="sourcePoint" />
            <mxPoint x="240" y="280" as="targetPoint" />
          </mxGeometry>
        </mxCell>
        <mxCell id="BqxO_oJIJfSJZBJjIX4z-26" value="" style="endArrow=none;html=1;rounded=0;entryX=0;entryY=0.5;entryDx=0;entryDy=0;" parent="1" target="BqxO_oJIJfSJZBJjIX4z-14" edge="1">
          <mxGeometry width="50" height="50" relative="1" as="geometry">
            <mxPoint x="120" y="350" as="sourcePoint" />
            <mxPoint x="240" y="260" as="targetPoint" />
          </mxGeometry>
        </mxCell>
        <mxCell id="BqxO_oJIJfSJZBJjIX4z-28" value="" style="endArrow=classic;html=1;rounded=0;entryX=0;entryY=0.5;entryDx=0;entryDy=0;exitX=1;exitY=0;exitDx=0;exitDy=0;dashed=1;" parent="1" target="BqxO_oJIJfSJZBJjIX4z-11" edge="1">
          <mxGeometry width="50" height="50" relative="1" as="geometry">
            <mxPoint x="342.42640687119274" y="251.71572875253833" as="sourcePoint" />
            <mxPoint x="240" y="260" as="targetPoint" />
          </mxGeometry>
        </mxCell>
        <mxCell id="BqxO_oJIJfSJZBJjIX4z-29" value="" style="endArrow=classic;html=1;rounded=0;entryX=0;entryY=0.5;entryDx=0;entryDy=0;exitX=1;exitY=0.5;exitDx=0;exitDy=0;dashed=1;" parent="1" target="BqxO_oJIJfSJZBJjIX4z-12" edge="1">
          <mxGeometry width="50" height="50" relative="1" as="geometry">
            <mxPoint x="360" y="280" as="sourcePoint" />
            <mxPoint x="240" y="260" as="targetPoint" />
          </mxGeometry>
        </mxCell>
        <mxCell id="BqxO_oJIJfSJZBJjIX4z-32" value="" style="endArrow=classic;html=1;rounded=0;entryX=1;entryY=0.5;entryDx=0;entryDy=0;exitX=0;exitY=1;exitDx=0;exitDy=0;dashed=1;" parent="1" source="BqxO_oJIJfSJZBJjIX4z-16" target="BqxO_oJIJfSJZBJjIX4z-15" edge="1">
          <mxGeometry width="50" height="50" relative="1" as="geometry">
            <mxPoint x="190" y="310" as="sourcePoint" />
            <mxPoint x="240" y="260" as="targetPoint" />
          </mxGeometry>
        </mxCell>
        <mxCell id="BqxO_oJIJfSJZBJjIX4z-33" value="Включает" style="text;html=1;strokeColor=none;fillColor=none;align=center;verticalAlign=middle;whiteSpace=wrap;rounded=0;" parent="1" vertex="1">
          <mxGeometry x="310" y="200" width="60" height="30" as="geometry" />
        </mxCell>
        <mxCell id="BqxO_oJIJfSJZBJjIX4z-34" value="Включает" style="text;html=1;strokeColor=none;fillColor=none;align=center;verticalAlign=middle;whiteSpace=wrap;rounded=0;" parent="1" vertex="1">
          <mxGeometry x="370" y="405" width="60" height="30" as="geometry" />
        </mxCell>
        <mxCell id="BqxO_oJIJfSJZBJjIX4z-35" value="Включает" style="text;html=1;strokeColor=none;fillColor=none;align=center;verticalAlign=middle;whiteSpace=wrap;rounded=0;" parent="1" vertex="1">
          <mxGeometry x="360" y="250" width="60" height="30" as="geometry" />
        </mxCell>
        <mxCell id="BqxO_oJIJfSJZBJjIX4z-37" value="Включает" style="text;html=1;strokeColor=none;fillColor=none;align=center;verticalAlign=middle;whiteSpace=wrap;rounded=0;" parent="1" vertex="1">
          <mxGeometry x="560" y="480" width="60" height="30" as="geometry" />
        </mxCell>
        <mxCell id="g9y96b5UNol4rBwA7D8Q-1" value="Админ" style="shape=umlActor;verticalLabelPosition=bottom;verticalAlign=top;html=1;outlineConnect=0;" vertex="1" parent="1">
          <mxGeometry x="70" y="150" width="45" height="90" as="geometry" />
        </mxCell>
      </root>
    </mxGraphModel>
  </diagram>
</mxfile>
